<svg xmlns="http://www.w3.org/2000/svg" viewBox="0 0 1440 980" width="1440" height="980">
  <defs>
    <clipPath id="cr"><rect width="1440" height="980" rx="0"/></clipPath>
  </defs>
  <rect width="1440" height="980" fill="#0b0f1a"/>
  <g clip-path="url(#cr)">

    <!-- ═══════════════════════════════════ TOOLBAR ROW 1 ══ -->
    <rect x="0" y="0" width="1440" height="42" fill="#0d1220"/>
    <text x="16" y="27" font-family="Arial" font-size="20" font-weight="bold" fill="#60A5FA">BurpMax</text>
    <text x="820" y="25" font-family="Arial" font-size="9" fill="#27AE60">&#x25A1; autosaved 13:22</text>
    <rect x="910" y="10" width="64" height="22" rx="2" fill="#16202E" stroke="#28385a" stroke-width="1"/>
    <text x="926" y="25" font-family="Arial" font-size="11" fill="#CBD5E1">&#x1F4BE; Save</text>
    <rect x="980" y="10" width="62" height="22" rx="2" fill="#16202E" stroke="#28385a" stroke-width="1"/>
    <text x="993" y="25" font-family="Arial" font-size="11" fill="#CBD5E1">&#x2B07; Load</text>
    <rect x="1054" y="10" width="76" height="22" rx="2" fill="#7f1d1d" stroke="#991b1b" stroke-width="1"/>
    <text x="1066" y="25" font-family="Arial" font-size="11" font-weight="bold" fill="#FECACA">Clear All</text>
    <rect x="1138" y="10" width="62" height="22" rx="2" fill="#16202E" stroke="#28385a" stroke-width="1"/>
    <text x="1148" y="25" font-family="Arial" font-size="11" fill="#CBD5E1">&#x23F8; Pause</text>
    <rect x="1214" y="10" width="42" height="22" rx="2" fill="#2563EB" stroke="#3B82F6" stroke-width="1"/>
    <text x="1225" y="25" font-family="Arial" font-size="11" font-weight="bold" fill="#fff">CSV</text>
    <rect x="1262" y="10" width="40" height="22" rx="2" fill="#2563EB" stroke="#3B82F6" stroke-width="1"/>
    <text x="1272" y="25" font-family="Arial" font-size="11" font-weight="bold" fill="#fff">PDF</text>
    <rect x="1308" y="10" width="46" height="22" rx="2" fill="#2563EB" stroke="#3B82F6" stroke-width="1"/>
    <text x="1316" y="25" font-family="Arial" font-size="11" font-weight="bold" fill="#fff">Word</text>
    <rect x="1360" y="10" width="68" height="22" rx="2" fill="#16202E" stroke="#28385a" stroke-width="1"/>
    <text x="1368" y="25" font-family="Arial" font-size="11" fill="#CBD5E1">Scan Diff</text>
    <line x1="0" y1="42" x2="1440" y2="42" stroke="#1e283c" stroke-width="1"/>

    <!-- ═══════════════════════════════════ TOOLBAR ROW 2 ══ -->
    <rect x="0" y="42" width="1440" height="34" fill="#0d1220"/>
    <rect x="16" y="50" width="120" height="22" rx="2" fill="#6B21A8" stroke="#7C3AED" stroke-width="1"/>
    <text x="20" y="65" font-family="Courier New" font-size="11" font-weight="bold" fill="#fff">&#x26A1; Active Scan</text>
    <text x="152" y="65" font-family="Arial" font-size="10" fill="#27AE60">Active scan complete. 19 active findings.</text>
    <line x1="0" y1="76" x2="1440" y2="76" stroke="#1e283c" stroke-width="1"/>

    <!-- ═══════════════════════════════════ FILTER BAR ══ -->
    <rect x="0" y="76" width="1440" height="30" fill="#16202E"/>
    <text x="10"  y="95" font-family="Arial" font-size="10" fill="#788BA8">Total:</text>
    <text x="45"  y="95" font-family="Arial" font-size="10" font-weight="bold" fill="#E2E8F0">19</text>
    <text x="58"  y="95" font-family="Arial" font-size="10" fill="#788BA8">Crit:</text>
    <text x="85"  y="95" font-family="Arial" font-size="10" font-weight="bold" fill="#FF5050">5</text>
    <text x="98"  y="95" font-family="Arial" font-size="10" fill="#788BA8">High:</text>
    <text x="128" y="95" font-family="Arial" font-size="10" font-weight="bold" fill="#F87171">8</text>
    <text x="142" y="95" font-family="Arial" font-size="10" fill="#788BA8">Med:</text>
    <text x="168" y="95" font-family="Arial" font-size="10" font-weight="bold" fill="#FB923C">6</text>
    <text x="180" y="95" font-family="Arial" font-size="10" fill="#788BA8">Low:</text>
    <text x="205" y="95" font-family="Arial" font-size="10" font-weight="bold" fill="#FACC15">0</text>
    <text x="240" y="95" font-family="Arial" font-size="10" fill="#CBD5E1">19 findings</text>
    <rect x="310" y="81" width="28" height="18" rx="2" fill="#1e3a5f" stroke="#3B82F6" stroke-width="1"/>
    <text x="317" y="94" font-family="Arial" font-size="10" fill="#93C5FD">All</text>
    <rect x="344" y="81" width="60" height="18" rx="2" fill="#16202E" stroke="#28385a" stroke-width="1"/>
    <text x="352" y="94" font-family="Arial" font-size="10" fill="#FF5050">Critical</text>
    <rect x="410" y="81" width="38" height="18" rx="2" fill="#16202E" stroke="#28385a" stroke-width="1"/>
    <text x="418" y="94" font-family="Arial" font-size="10" fill="#F87171">High</text>
    <rect x="454" y="81" width="54" height="18" rx="2" fill="#16202E" stroke="#28385a" stroke-width="1"/>
    <text x="462" y="94" font-family="Arial" font-size="10" fill="#FB923C">Medium</text>
    <rect x="514" y="81" width="32" height="18" rx="2" fill="#16202E" stroke="#28385a" stroke-width="1"/>
    <text x="520" y="94" font-family="Arial" font-size="10" fill="#FACC15">Low</text>
    <rect x="552" y="81" width="90" height="18" rx="2" fill="#16202E" stroke="#28385a" stroke-width="1"/>
    <text x="558" y="94" font-family="Arial" font-size="10" fill="#93C5FD">Informational</text>
    <rect x="650" y="81" width="56" height="18" rx="2" fill="#16202E" stroke="#28385a" stroke-width="1"/>
    <text x="658" y="94" font-family="Arial" font-size="10" fill="#CBD5E1">Show FP</text>
    <text x="720" y="94" font-family="Arial" font-size="9" fill="#788BA8">[ search ]</text>
    <rect x="762" y="81" width="180" height="18" rx="2" fill="#16202E" stroke="#28385a" stroke-width="1"/>
    <text x="770" y="94" font-family="Courier New" font-size="10" fill="#4a5568">Search findings...</text>
    <rect x="946" y="81" width="18" height="18" rx="2" fill="#16202E" stroke="#28385a" stroke-width="1"/>
    <text x="951" y="94" font-family="Arial" font-size="10" font-weight="bold" fill="#788BA8">x</text>
    <line x1="0" y1="106" x2="1440" y2="106" stroke="#28385a" stroke-width="1"/>

    <!-- ═══════════════════════════════════ VERTICAL DIVIDER ══ -->
    <line x1="680" y1="106" x2="680" y2="960" stroke="#28385a" stroke-width="1"/>

    <!-- ═══════════════════════════════════ TABLE LEFT PANE ══ -->
    <rect x="0" y="106" width="680" height="22" fill="#0d1220"/>
    <text x="8"   y="121" font-family="Arial" font-size="8" fill="#788BA8">#</text>
    <text x="22"  y="121" font-family="Arial" font-size="8" fill="#788BA8">SEVERITY</text>
    <text x="115" y="121" font-family="Arial" font-size="8" fill="#788BA8">FINDING</text>
    <text x="360" y="121" font-family="Arial" font-size="8" fill="#788BA8">ENDPOINT</text>
    <text x="505" y="121" font-family="Arial" font-size="8" fill="#788BA8">HTTP</text>
    <text x="545" y="121" font-family="Arial" font-size="8" fill="#788BA8">CWE</text>
    <text x="600" y="121" font-family="Arial" font-size="8" fill="#788BA8">CVSS</text>
    <text x="635" y="121" font-family="Arial" font-size="8" fill="#788BA8">STATUS</text>
    <line x1="18"  y1="106" x2="18"  y2="960" stroke="#1e283c" stroke-width="1"/>
    <line x1="110" y1="106" x2="110" y2="960" stroke="#1e283c" stroke-width="1"/>
    <line x1="350" y1="106" x2="350" y2="960" stroke="#1e283c" stroke-width="1"/>
    <line x1="496" y1="106" x2="496" y2="960" stroke="#1e283c" stroke-width="1"/>
    <line x1="538" y1="106" x2="538" y2="960" stroke="#1e283c" stroke-width="1"/>
    <line x1="592" y1="106" x2="592" y2="960" stroke="#1e283c" stroke-width="1"/>
    <line x1="630" y1="106" x2="630" y2="960" stroke="#1e283c" stroke-width="1"/>
    <line x1="0"   y1="128" x2="680" y2="128" stroke="#1e283c" stroke-width="1"/>

    <!-- CRITICAL rows (5) -->
    <!-- ROW 1 SELECTED -->
    <rect x="0" y="128" width="680" height="24" fill="#14305A"/>
    <text x="8"   y="144" font-family="Courier New" font-size="10" fill="#B0C4DE">1</text>
    <text x="22"  y="144" font-family="Courier New" font-size="10" font-weight="bold" fill="#FF5050">Critical</text>
    <text x="115" y="144" font-family="Courier New" font-size="10" fill="#E2E8F0">Log4Shell / Log4j RCE (CVE-2021-44228)</text>
    <text x="360" y="144" font-family="Courier New" font-size="10" fill="#E2E8F0">https://api.target.com/auth/...</text>
    <text x="505" y="144" font-family="Courier New" font-size="10" fill="#E2E8F0">POST</text>
    <text x="545" y="144" font-family="Courier New" font-size="10" fill="#E2E8F0">CWE-917</text>
    <text x="600" y="144" font-family="Courier New" font-size="10" fill="#FF5050">9.3</text>
    <text x="635" y="144" font-family="Courier New" font-size="10" fill="#E2E8F0">Open</text>
    <line x1="0" y1="152" x2="680" y2="152" stroke="#1e283c" stroke-width="1"/>

    <!-- ROW 2 -->
    <rect x="0" y="152" width="680" height="24" fill="#0b0f1a"/>
    <text x="8"   y="168" font-family="Courier New" font-size="10" fill="#788BA8">2</text>
    <text x="22"  y="168" font-family="Courier New" font-size="10" font-weight="bold" fill="#FF5050">Critical</text>
    <text x="115" y="168" font-family="Courier New" font-size="10" fill="#CBD5E1">SQL Injection (Error-based + Time-based)</text>
    <text x="360" y="168" font-family="Courier New" font-size="10" fill="#788BA8">https://api.target.com/users...</text>
    <text x="505" y="168" font-family="Courier New" font-size="10" fill="#788BA8">GET</text>
    <text x="545" y="168" font-family="Courier New" font-size="10" fill="#788BA8">CWE-89</text>
    <text x="600" y="168" font-family="Courier New" font-size="10" fill="#FF5050">9.1</text>
    <text x="635" y="168" font-family="Courier New" font-size="10" fill="#788BA8">Open</text>
    <line x1="0" y1="176" x2="680" y2="176" stroke="#1e283c" stroke-width="1"/>

    <!-- ROW 3 -->
    <rect x="0" y="176" width="680" height="24" fill="#0b0f1a"/>
    <text x="8"   y="192" font-family="Courier New" font-size="10" fill="#788BA8">3</text>
    <text x="22"  y="192" font-family="Courier New" font-size="10" font-weight="bold" fill="#FF5050">Critical</text>
    <text x="115" y="192" font-family="Courier New" font-size="10" fill="#CBD5E1">Java Deserialization (URLDNS OOB)</text>
    <text x="360" y="192" font-family="Courier New" font-size="10" fill="#788BA8">https://api.target.com/impor...</text>
    <text x="505" y="192" font-family="Courier New" font-size="10" fill="#788BA8">POST</text>
    <text x="545" y="192" font-family="Courier New" font-size="10" fill="#788BA8">CWE-502</text>
    <text x="600" y="192" font-family="Courier New" font-size="10" fill="#FF5050">9.1</text>
    <text x="635" y="192" font-family="Courier New" font-size="10" fill="#788BA8">Open</text>
    <line x1="0" y1="200" x2="680" y2="200" stroke="#1e283c" stroke-width="1"/>

    <!-- ROW 4 -->
    <rect x="0" y="200" width="680" height="24" fill="#0b0f1a"/>
    <text x="8"   y="216" font-family="Courier New" font-size="10" fill="#788BA8">4</text>
    <text x="22"  y="216" font-family="Courier New" font-size="10" font-weight="bold" fill="#FF5050">Critical</text>
    <text x="115" y="216" font-family="Courier New" font-size="10" fill="#CBD5E1">.env File Exposed (AWS_SECRET_ACCESS_KEY)</text>
    <text x="360" y="216" font-family="Courier New" font-size="10" fill="#788BA8">https://target.com/.env</text>
    <text x="505" y="216" font-family="Courier New" font-size="10" fill="#788BA8">GET</text>
    <text x="545" y="216" font-family="Courier New" font-size="10" fill="#788BA8">CWE-312</text>
    <text x="600" y="216" font-family="Courier New" font-size="10" fill="#FF5050">8.9</text>
    <text x="635" y="216" font-family="Courier New" font-size="10" fill="#788BA8">Confirmed</text>
    <line x1="0" y1="224" x2="680" y2="224" stroke="#1e283c" stroke-width="1"/>

    <!-- ROW 5 -->
    <rect x="0" y="224" width="680" height="24" fill="#0b0f1a"/>
    <text x="8"   y="240" font-family="Courier New" font-size="10" fill="#788BA8">5</text>
    <text x="22"  y="240" font-family="Courier New" font-size="10" font-weight="bold" fill="#FF5050">Critical</text>
    <text x="115" y="240" font-family="Courier New" font-size="10" fill="#CBD5E1">Spring Boot /actuator/heapdump Exposed</text>
    <text x="360" y="240" font-family="Courier New" font-size="10" fill="#788BA8">https://api.target.com/actua...</text>
    <text x="505" y="240" font-family="Courier New" font-size="10" fill="#788BA8">GET</text>
    <text x="545" y="240" font-family="Courier New" font-size="10" fill="#788BA8">CWE-200</text>
    <text x="600" y="240" font-family="Courier New" font-size="10" fill="#FF5050">8.7</text>
    <text x="635" y="240" font-family="Courier New" font-size="10" fill="#788BA8">Open</text>
    <line x1="0" y1="248" x2="680" y2="248" stroke="#1e283c" stroke-width="1"/>

    <!-- HIGH rows (8) -->
    <!-- ROW 6 -->
    <rect x="0" y="248" width="680" height="24" fill="#0b0f1a"/>
    <text x="8"   y="264" font-family="Courier New" font-size="10" fill="#788BA8">6</text>
    <text x="22"  y="264" font-family="Courier New" font-size="10" font-weight="bold" fill="#F87171">High</text>
    <text x="115" y="264" font-family="Courier New" font-size="10" fill="#CBD5E1">JWT Algorithm Confusion (RS256 to HS256)</text>
    <text x="360" y="264" font-family="Courier New" font-size="10" fill="#788BA8">https://api.target.com/auth/...</text>
    <text x="505" y="264" font-family="Courier New" font-size="10" fill="#788BA8">POST</text>
    <text x="545" y="264" font-family="Courier New" font-size="10" fill="#788BA8">CWE-327</text>
    <text x="600" y="264" font-family="Courier New" font-size="10" fill="#F87171">8.2</text>
    <text x="635" y="264" font-family="Courier New" font-size="10" fill="#788BA8">Open</text>
    <line x1="0" y1="272" x2="680" y2="272" stroke="#1e283c" stroke-width="1"/>

    <!-- ROW 7 -->
    <rect x="0" y="272" width="680" height="24" fill="#0b0f1a"/>
    <text x="8"   y="288" font-family="Courier New" font-size="10" fill="#788BA8">7</text>
    <text x="22"  y="288" font-family="Courier New" font-size="10" font-weight="bold" fill="#F87171">High</text>
    <text x="115" y="288" font-family="Courier New" font-size="10" fill="#CBD5E1">Reflected XSS (Unescaped Parameter)</text>
    <text x="360" y="288" font-family="Courier New" font-size="10" fill="#788BA8">https://target.com/search?q=...</text>
    <text x="505" y="288" font-family="Courier New" font-size="10" fill="#788BA8">GET</text>
    <text x="545" y="288" font-family="Courier New" font-size="10" fill="#788BA8">CWE-79</text>
    <text x="600" y="288" font-family="Courier New" font-size="10" fill="#F87171">7.5</text>
    <text x="635" y="288" font-family="Courier New" font-size="10" fill="#788BA8">Open</text>
    <line x1="0" y1="296" x2="680" y2="296" stroke="#1e283c" stroke-width="1"/>

    <!-- ROW 8 -->
    <rect x="0" y="296" width="680" height="24" fill="#0b0f1a"/>
    <text x="8"   y="312" font-family="Courier New" font-size="10" fill="#788BA8">8</text>
    <text x="22"  y="312" font-family="Courier New" font-size="10" font-weight="bold" fill="#F87171">High</text>
    <text x="115" y="312" font-family="Courier New" font-size="10" fill="#CBD5E1">SSRF via X-Forwarded-For (OOB DNS)</text>
    <text x="360" y="312" font-family="Courier New" font-size="10" fill="#788BA8">https://api.target.com/fetch...</text>
    <text x="505" y="312" font-family="Courier New" font-size="10" fill="#788BA8">POST</text>
    <text x="545" y="312" font-family="Courier New" font-size="10" fill="#788BA8">CWE-918</text>
    <text x="600" y="312" font-family="Courier New" font-size="10" fill="#F87171">8.0</text>
    <text x="635" y="312" font-family="Courier New" font-size="10" fill="#788BA8">Open</text>
    <line x1="0" y1="320" x2="680" y2="320" stroke="#1e283c" stroke-width="1"/>

    <!-- ROW 9 -->
    <rect x="0" y="320" width="680" height="24" fill="#0b0f1a"/>
    <text x="8"   y="336" font-family="Courier New" font-size="10" fill="#788BA8">9</text>
    <text x="22"  y="336" font-family="Courier New" font-size="10" font-weight="bold" fill="#F87171">High</text>
    <text x="115" y="336" font-family="Courier New" font-size="10" fill="#CBD5E1">IDOR - Horizontal Privilege Escalation</text>
    <text x="360" y="336" font-family="Courier New" font-size="10" fill="#788BA8">https://api.target.com/users...</text>
    <text x="505" y="336" font-family="Courier New" font-size="10" fill="#788BA8">GET</text>
    <text x="545" y="336" font-family="Courier New" font-size="10" fill="#788BA8">CWE-284</text>
    <text x="600" y="336" font-family="Courier New" font-size="10" fill="#F87171">7.8</text>
    <text x="635" y="336" font-family="Courier New" font-size="10" fill="#788BA8">Open</text>
    <line x1="0" y1="344" x2="680" y2="344" stroke="#1e283c" stroke-width="1"/>

    <!-- ROW 10 NEW HIGH -->
    <rect x="0" y="344" width="680" height="24" fill="#0b0f1a"/>
    <text x="8"   y="360" font-family="Courier New" font-size="10" fill="#788BA8">10</text>
    <text x="22"  y="360" font-family="Courier New" font-size="10" font-weight="bold" fill="#F87171">High</text>
    <text x="115" y="360" font-family="Courier New" font-size="10" fill="#CBD5E1">HTTP Request Smuggling (CL.TE)</text>
    <text x="360" y="360" font-family="Courier New" font-size="10" fill="#788BA8">https://api.target.com/api/v1</text>
    <text x="505" y="360" font-family="Courier New" font-size="10" fill="#788BA8">POST</text>
    <text x="545" y="360" font-family="Courier New" font-size="10" fill="#788BA8">CWE-444</text>
    <text x="600" y="360" font-family="Courier New" font-size="10" fill="#F87171">7.4</text>
    <text x="635" y="360" font-family="Courier New" font-size="10" fill="#788BA8">Open</text>
    <line x1="0" y1="368" x2="680" y2="368" stroke="#1e283c" stroke-width="1"/>

    <!-- ROW 11 NEW HIGH -->
    <rect x="0" y="368" width="680" height="24" fill="#0b0f1a"/>
    <text x="8"   y="384" font-family="Courier New" font-size="10" fill="#788BA8">11</text>
    <text x="22"  y="384" font-family="Courier New" font-size="10" font-weight="bold" fill="#F87171">High</text>
    <text x="115" y="384" font-family="Courier New" font-size="10" fill="#CBD5E1">Path Traversal (23 Encoding Variants)</text>
    <text x="360" y="384" font-family="Courier New" font-size="10" fill="#788BA8">https://api.target.com/files/...</text>
    <text x="505" y="384" font-family="Courier New" font-size="10" fill="#788BA8">GET</text>
    <text x="545" y="384" font-family="Courier New" font-size="10" fill="#788BA8">CWE-22</text>
    <text x="600" y="384" font-family="Courier New" font-size="10" fill="#F87171">7.6</text>
    <text x="635" y="384" font-family="Courier New" font-size="10" fill="#788BA8">Open</text>
    <line x1="0" y1="392" x2="680" y2="392" stroke="#1e283c" stroke-width="1"/>

    <!-- ROW 12 NEW HIGH -->
    <rect x="0" y="392" width="680" height="24" fill="#0b0f1a"/>
    <text x="8"   y="408" font-family="Courier New" font-size="10" fill="#788BA8">12</text>
    <text x="22"  y="408" font-family="Courier New" font-size="10" font-weight="bold" fill="#F87171">High</text>
    <text x="115" y="408" font-family="Courier New" font-size="10" fill="#CBD5E1">Stored XSS (Canary Confirmed in Sink)</text>
    <text x="360" y="408" font-family="Courier New" font-size="10" fill="#788BA8">https://target.com/comments</text>
    <text x="505" y="408" font-family="Courier New" font-size="10" fill="#788BA8">POST</text>
    <text x="545" y="408" font-family="Courier New" font-size="10" fill="#788BA8">CWE-79</text>
    <text x="600" y="408" font-family="Courier New" font-size="10" fill="#F87171">7.3</text>
    <text x="635" y="408" font-family="Courier New" font-size="10" fill="#788BA8">Open</text>
    <line x1="0" y1="416" x2="680" y2="416" stroke="#1e283c" stroke-width="1"/>

    <!-- ROW 13 NEW HIGH -->
    <rect x="0" y="416" width="680" height="24" fill="#0b0f1a"/>
    <text x="8"   y="432" font-family="Courier New" font-size="10" fill="#788BA8">13</text>
    <text x="22"  y="432" font-family="Courier New" font-size="10" font-weight="bold" fill="#F87171">High</text>
    <text x="115" y="432" font-family="Courier New" font-size="10" fill="#CBD5E1">OAuth Open redirect_uri (Token Hijack)</text>
    <text x="360" y="432" font-family="Courier New" font-size="10" fill="#788BA8">https://auth.target.com/oauth...</text>
    <text x="505" y="432" font-family="Courier New" font-size="10" fill="#788BA8">GET</text>
    <text x="545" y="432" font-family="Courier New" font-size="10" fill="#788BA8">CWE-601</text>
    <text x="600" y="432" font-family="Courier New" font-size="10" fill="#F87171">7.1</text>
    <text x="635" y="432" font-family="Courier New" font-size="10" fill="#788BA8">Open</text>
    <line x1="0" y1="440" x2="680" y2="440" stroke="#1e283c" stroke-width="1"/>

    <!-- MEDIUM rows (6) -->
    <!-- ROW 14 -->
    <rect x="0" y="440" width="680" height="24" fill="#0b0f1a"/>
    <text x="8"   y="456" font-family="Courier New" font-size="10" fill="#788BA8">14</text>
    <text x="22"  y="456" font-family="Courier New" font-size="10" font-weight="bold" fill="#FB923C">Medium</text>
    <text x="115" y="456" font-family="Courier New" font-size="10" fill="#CBD5E1">CORS Misconfiguration (Arbitrary Origin)</text>
    <text x="360" y="456" font-family="Courier New" font-size="10" fill="#788BA8">https://api.target.com/graphql</text>
    <text x="505" y="456" font-family="Courier New" font-size="10" fill="#788BA8">POST</text>
    <text x="545" y="456" font-family="Courier New" font-size="10" fill="#788BA8">CWE-942</text>
    <text x="600" y="456" font-family="Courier New" font-size="10" fill="#FB923C">6.5</text>
    <text x="635" y="456" font-family="Courier New" font-size="10" fill="#788BA8">Open</text>
    <line x1="0" y1="464" x2="680" y2="464" stroke="#1e283c" stroke-width="1"/>

    <!-- ROW 15 -->
    <rect x="0" y="464" width="680" height="24" fill="#0b0f1a"/>
    <text x="8"   y="480" font-family="Courier New" font-size="10" fill="#788BA8">15</text>
    <text x="22"  y="480" font-family="Courier New" font-size="10" font-weight="bold" fill="#FB923C">Medium</text>
    <text x="115" y="480" font-family="Courier New" font-size="10" fill="#CBD5E1">SSTI (Jinja2 Math Evaluation)</text>
    <text x="360" y="480" font-family="Courier New" font-size="10" fill="#788BA8">https://target.com/template?n...</text>
    <text x="505" y="480" font-family="Courier New" font-size="10" fill="#788BA8">GET</text>
    <text x="545" y="480" font-family="Courier New" font-size="10" fill="#788BA8">CWE-94</text>
    <text x="600" y="480" font-family="Courier New" font-size="10" fill="#FB923C">6.8</text>
    <text x="635" y="480" font-family="Courier New" font-size="10" fill="#788BA8">Open</text>
    <line x1="0" y1="488" x2="680" y2="488" stroke="#1e283c" stroke-width="1"/>

    <!-- ROW 16 -->
    <rect x="0" y="488" width="680" height="24" fill="#0b0f1a"/>
    <text x="8"   y="504" font-family="Courier New" font-size="10" fill="#788BA8">16</text>
    <text x="22"  y="504" font-family="Courier New" font-size="10" font-weight="bold" fill="#FB923C">Medium</text>
    <text x="115" y="504" font-family="Courier New" font-size="10" fill="#CBD5E1">GraphQL Introspection Enabled</text>
    <text x="360" y="504" font-family="Courier New" font-size="10" fill="#788BA8">https://api.target.com/graphql</text>
    <text x="505" y="504" font-family="Courier New" font-size="10" fill="#788BA8">POST</text>
    <text x="545" y="504" font-family="Courier New" font-size="10" fill="#788BA8">CWE-200</text>
    <text x="600" y="504" font-family="Courier New" font-size="10" fill="#FB923C">5.3</text>
    <text x="635" y="504" font-family="Courier New" font-size="10" fill="#788BA8">Open</text>
    <line x1="0" y1="512" x2="680" y2="512" stroke="#1e283c" stroke-width="1"/>

    <!-- ROW 17 -->
    <rect x="0" y="512" width="680" height="24" fill="#0b0f1a"/>
    <text x="8"   y="528" font-family="Courier New" font-size="10" fill="#788BA8">17</text>
    <text x="22"  y="528" font-family="Courier New" font-size="10" font-weight="bold" fill="#FB923C">Medium</text>
    <text x="115" y="528" font-family="Courier New" font-size="10" fill="#CBD5E1">Missing HSTS Header (HTTPS Downgrade)</text>
    <text x="360" y="528" font-family="Courier New" font-size="10" fill="#788BA8">https://target.com/</text>
    <text x="505" y="528" font-family="Courier New" font-size="10" fill="#788BA8">GET</text>
    <text x="545" y="528" font-family="Courier New" font-size="10" fill="#788BA8">CWE-319</text>
    <text x="600" y="528" font-family="Courier New" font-size="10" fill="#FB923C">5.4</text>
    <text x="635" y="528" font-family="Courier New" font-size="10" fill="#788BA8">Open</text>
    <line x1="0" y1="536" x2="680" y2="536" stroke="#1e283c" stroke-width="1"/>

    <!-- ROW 18 -->
    <rect x="0" y="536" width="680" height="24" fill="#0b0f1a"/>
    <text x="8"   y="552" font-family="Courier New" font-size="10" fill="#788BA8">18</text>
    <text x="22"  y="552" font-family="Courier New" font-size="10" font-weight="bold" fill="#FB923C">Medium</text>
    <text x="115" y="552" font-family="Courier New" font-size="10" fill="#CBD5E1">NoSQL Injection ($ne Operator)</text>
    <text x="360" y="552" font-family="Courier New" font-size="10" fill="#788BA8">https://api.target.com/auth/l...</text>
    <text x="505" y="552" font-family="Courier New" font-size="10" fill="#788BA8">POST</text>
    <text x="545" y="552" font-family="Courier New" font-size="10" fill="#788BA8">CWE-943</text>
    <text x="600" y="552" font-family="Courier New" font-size="10" fill="#FB923C">6.2</text>
    <text x="635" y="552" font-family="Courier New" font-size="10" fill="#788BA8">Open</text>
    <line x1="0" y1="560" x2="680" y2="560" stroke="#1e283c" stroke-width="1"/>

    <!-- ROW 19 -->
    <rect x="0" y="560" width="680" height="24" fill="#0b0f1a"/>
    <text x="8"   y="576" font-family="Courier New" font-size="10" fill="#788BA8">19</text>
    <text x="22"  y="576" font-family="Courier New" font-size="10" font-weight="bold" fill="#FB923C">Medium</text>
    <text x="115" y="576" font-family="Courier New" font-size="10" fill="#CBD5E1">Sensitive File: .git/config Exposed</text>
    <text x="360" y="576" font-family="Courier New" font-size="10" fill="#788BA8">https://target.com/.git/config</text>
    <text x="505" y="576" font-family="Courier New" font-size="10" fill="#788BA8">GET</text>
    <text x="545" y="576" font-family="Courier New" font-size="10" fill="#788BA8">CWE-538</text>
    <text x="600" y="576" font-family="Courier New" font-size="10" fill="#FB923C">5.8</text>
    <text x="635" y="576" font-family="Courier New" font-size="10" fill="#788BA8">Open</text>
    <line x1="0" y1="584" x2="680" y2="584" stroke="#1e283c" stroke-width="1"/>

    <!-- Empty area below all rows -->
    <rect x="0" y="584" width="680" height="376" fill="#0b0f1a"/>

    <!-- ═══════════════════════════════════ DETAIL PANE RIGHT ══ -->
    <rect x="681" y="106" width="759" height="854" fill="#0d1220"/>

    <!-- Finding title + CRITICAL badge -->
    <text x="697" y="131" font-family="Arial" font-size="14" font-weight="bold" fill="#F1F5F9">Log4Shell / Log4j RCE (CVE-2021-44228)</text>
    <rect x="1354" y="112" width="74" height="20" rx="2" fill="#7f1d1d"/>
    <text x="1360" y="126" font-family="Arial" font-size="10" font-weight="bold" fill="#FCA5A5">CRITICAL</text>

    <!-- Action buttons -->
    <rect x="697"  y="138" width="118" height="22" rx="2" fill="#16202E" stroke="#28385a" stroke-width="1"/>
    <text x="703"  y="153" font-family="Arial" font-size="10" fill="#93C5FD">Send to Repeater</text>
    <rect x="821"  y="138" width="84" height="22" rx="2" fill="#16202E" stroke="#28385a" stroke-width="1"/>
    <text x="832"  y="153" font-family="Arial" font-size="10" fill="#93C5FD">Mark as FP</text>
    <rect x="911"  y="138" width="112" height="22" rx="2" fill="#16202E" stroke="#28385a" stroke-width="1"/>
    <text x="919"  y="153" font-family="Arial" font-size="10" fill="#93C5FD">Override Severity</text>
    <rect x="1029" y="138" width="74" height="22" rx="2" fill="#16202E" stroke="#28385a" stroke-width="1"/>
    <text x="1040" y="153" font-family="Arial" font-size="10" fill="#93C5FD">Copy URL</text>

    <!-- CVSS + Status -->
    <text x="697"  y="178" font-family="Arial" font-size="9" fill="#788BA8">CVSS 4.0:</text>
    <text x="748"  y="180" font-family="Arial" font-size="14" font-weight="bold" fill="#FF5050">9.0</text>
    <text x="770"  y="178" font-family="Arial" font-size="9" fill="#788BA8">Status:</text>
    <rect x="808" y="166" width="72" height="20" rx="2" fill="#16202E" stroke="#28385a" stroke-width="1"/>
    <text x="820"  y="180" font-family="Arial" font-size="10" fill="#E2E8F0">Open &#x25BE;</text>

    <!-- DESCRIPTION -->
    <rect x="681" y="192" width="759" height="18" fill="#16202E"/>
    <text x="697" y="205" font-family="Arial" font-size="9" font-weight="bold" fill="#788BA8">DESCRIPTION</text>
    <rect x="681" y="210" width="759" height="84" fill="#07080e"/>
    <rect x="681" y="210" width="4"   height="84" fill="#1e283c"/>
    <text x="697" y="228" font-family="Courier New" font-size="10" fill="#CBD5E1">Log4Shell was confirmed via an out-of-band DNS callback. The payload</text>
    <text x="697" y="244" font-family="Courier New" font-size="10" fill="#CBD5E1">${jndi:ldap://a3f7x12.burpmax-canary.test/log4shell} was injected into</text>
    <text x="697" y="260" font-family="Courier New" font-size="10" fill="#CBD5E1">the User-Agent header and a DNS A query was received at the OOB server,</text>
    <text x="697" y="276" font-family="Courier New" font-size="10" fill="#CBD5E1">confirming JNDI expression evaluation. Affects Log4j 2.0-beta9 to 2.14.1.</text>

    <!-- EVIDENCE -->
    <rect x="681" y="294" width="759" height="18" fill="#16202E"/>
    <text x="697" y="307" font-family="Arial" font-size="9" font-weight="bold" fill="#788BA8">EVIDENCE</text>
    <rect x="681" y="312" width="759" height="84" fill="#07080e"/>
    <rect x="681" y="312" width="4"   height="84" fill="#1e283c"/>
    <text x="697" y="330" font-family="Courier New" font-size="10" fill="#6EE7B7">OOB DNS hit: protocol=dns | q-type=A | unique-id=a3f7x12</text>
    <text x="697" y="346" font-family="Courier New" font-size="10" fill="#6EE7B7">host=a3f7x12.burpmax-canary.test | callback confirmed</text>
    <text x="697" y="362" font-family="Courier New" font-size="10" fill="#CBD5E1">Injected header  User-Agent: ${jndi:ldap://a3f7x12.burpmax-canary.test/log4shell}</text>
    <text x="697" y="378" font-family="Courier New" font-size="10" fill="#CBD5E1">Response: HTTP/1.1 200 OK   (login endpoint responded normally)</text>

    <!-- REMEDIATION -->
    <rect x="681" y="396" width="759" height="18" fill="#16202E"/>
    <text x="697" y="409" font-family="Arial" font-size="9" font-weight="bold" fill="#788BA8">REMEDIATION</text>
    <rect x="681" y="414" width="759" height="84" fill="#07080e"/>
    <rect x="681" y="414" width="4"   height="84" fill="#1e283c"/>
    <text x="697" y="432" font-family="Courier New" font-size="10" fill="#CBD5E1">Upgrade Log4j to 2.17.1+ (Java 8) or 2.12.4+ (Java 7) or 2.3.2+ (Java 6).</text>
    <text x="697" y="448" font-family="Courier New" font-size="10" fill="#CBD5E1">Mitigation: set LOG4J_FORMAT_MSG_NO_LOOKUPS=true as an environment variable.</text>
    <text x="697" y="464" font-family="Courier New" font-size="10" fill="#CBD5E1">Block outbound LDAP/RMI at the network perimeter as a defence-in-depth measure.</text>
    <text x="697" y="480" font-family="Courier New" font-size="10" fill="#CBD5E1">Apply WAF rules blocking ${jndi: patterns at the ingress layer.</text>

    <!-- ANALYST NOTE -->
    <rect x="681" y="498" width="759" height="18" fill="#16202E"/>
    <text x="697" y="511" font-family="Arial" font-size="9" font-weight="bold" fill="#788BA8">ANALYST NOTE</text>
    <rect x="681" y="516" width="759" height="50" fill="#07080e"/>
    <rect x="681" y="516" width="4"   height="50" fill="#1e283c"/>
    <text x="697" y="534" font-family="Courier New" font-size="10" fill="#CBD5E1">Confirmed on staging env 2026-05-21. OOB callback received in 1.2s.</text>
    <text x="697" y="550" font-family="Courier New" font-size="10" fill="#788BA8">PoC shared with dev team. Patch scheduled for next sprint.</text>

    <!-- AFFECTED ENDPOINTS -->
    <rect x="681" y="566" width="759" height="18" fill="#16202E"/>
    <text x="697" y="579" font-family="Arial" font-size="9" font-weight="bold" fill="#788BA8">AFFECTED ENDPOINTS</text>
    <text x="1340" y="579" font-family="Arial" font-size="9" fill="#4a5568">3 endpoints affected</text>
    <rect x="681" y="584" width="759" height="60" fill="#07080e"/>
    <rect x="681" y="584" width="4"   height="60" fill="#1e283c"/>
    <text x="697" y="600" font-family="Courier New" font-size="10" fill="#CBD5E1">POST  https://api.target.com/auth/login</text>
    <text x="697" y="616" font-family="Courier New" font-size="10" fill="#788BA8">POST  https://api.target.com/api/v1/users</text>
    <text x="697" y="632" font-family="Courier New" font-size="10" fill="#788BA8">GET   https://api.target.com/search</text>

    <!-- ═══════════════════════════════════ STATUS BAR ══ -->
    <rect x="0" y="960" width="1440" height="20" fill="#0d1220"/>
    <line x1="0" y1="960" x2="1440" y2="960" stroke="#1e283c" stroke-width="1"/>
    <text x="16"   y="974" font-family="Arial" font-size="9" fill="#4a5568">BurpMax v1.0 | Passive + Active scanning</text>
    <text x="1280" y="974" font-family="Arial" font-size="9" fill="#4a5568">Developed by Omkar Mirkute</text>

  </g>
</svg>
